<svg width="140" height="40" viewBox="0 0 140 40" fill="none" xmlns="http://www.w3.org/2000/svg">
<g clip-path="url(#clip0_gg_logo)">
<mask id="mask0_gg_logo" style="mask-type:luminance" maskUnits="userSpaceOnUse" x="0" y="0" width="40" height="40">
<path d="M9.00038 0H30.1518C35.1226 0 39.1523 4.0297 39.1523 9.00058V30.152C39.1523 35.1228 35.1226 39.1525 30.1518 39.1525H9.00038C4.0295 39.1525 -0.000198364 35.1228 -0.000198364 30.152V9.00058C-0.000198364 4.0297 4.0295 0 9.00038 0Z" fill="white"/>
</mask>
<g mask="url(#mask0_gg_logo)">
<path d="M9.00136 0H30.1527C35.1236 0 39.1533 4.0297 39.1533 9.00058V30.152C39.1533 35.1228 35.1236 39.1525 30.1527 39.1525H9.00136C4.03048 39.1525 0.000778198 35.1228 0.000778198 30.152V9.00058C0.000778198 4.0297 4.03048 0 9.00136 0Z" fill="white"/>
<path d="M-0.238029 -1.84521H40.0487C41.3982 -1.84521 42.4922 -0.751223 42.4922 0.598283V38.5803C42.4922 39.9298 41.3982 41.0238 40.0487 41.0238H-0.238029C-1.58754 41.0238 -2.68153 39.9298 -2.68153 38.5803V0.598283C-2.68153 -0.751223 -1.58754 -1.84521 -0.238029 -1.84521Z" fill="#FFD12B"/>
<path d="M47.7616 11.0939C40.691 4.02344 29.2271 4.02335 22.1566 11.0939L19.5983 13.6521L17.0401 11.0939C9.96951 4.02337 -1.49436 4.02346 -8.56494 11.0939C-15.6354 18.1643 -15.6354 29.6282 -8.56494 36.6988L-6.00657 39.257L-6.00828 39.2587L19.5966 64.8636L19.5983 64.8621L19.6001 64.8636L45.205 39.2587L45.2033 39.257L47.7616 36.6988C54.8321 29.6282 54.8321 18.1643 47.7616 11.0939Z" fill="#FDBB30"/>
<path d="M38.7554 23.2408C33.9644 18.4501 26.1967 18.4509 21.4058 23.2417L19.672 24.9754L17.9376 23.2408C13.1467 18.4504 5.37965 18.4503 0.588852 23.2408C-4.20207 28.0317 -4.20268 35.7995 0.587997 40.5905L2.32245 42.325L19.6713 59.6754H19.6729L37.0226 42.3258L38.7554 40.5913C43.5464 35.8003 43.5464 28.0319 38.7554 23.2408Z" fill="#2BA1FB"/>
<path d="M29.1053 30.3253C26.7324 27.9526 22.885 27.9519 20.5121 30.3245L19.6528 31.1837L18.7944 30.3253C16.4215 27.9524 12.5749 27.9526 10.202 30.3253C7.82899 32.6983 7.82813 36.5457 10.2011 38.9186L19.6537 48.3711L28.2469 39.7778L29.1053 38.9177C31.4778 36.5448 31.478 32.6982 29.1053 30.3253Z" fill="#2B5DE9"/>
<path d="M23.869 27.6286C22.8076 26.5674 21.087 26.568 20.0257 27.6294L19.6421 28.013L19.2577 27.6286C18.1963 26.5672 16.4749 26.5672 15.4134 27.6286C14.352 28.69 14.352 30.4113 15.4134 31.4727L19.6412 35.7005L23.869 31.4727C24.9304 30.4113 24.9304 28.69 23.869 27.6286Z" fill="white"/>
<path d="M14.1492 16.9683C14.6861 18.0193 15.5401 18.5793 16.4308 18.3238C17.0409 18.1469 17.5534 17.6263 17.9072 16.8994" stroke="#031B0D" stroke-width="1.05363" stroke-linecap="round" stroke-linejoin="round"/>
<path d="M21.4011 16.9683C21.938 18.0193 22.7922 18.5793 23.6829 18.3238C24.2929 18.1469 24.8053 17.6263 25.1592 16.8994" stroke="#031B0D" stroke-width="1.05363" stroke-linecap="round" stroke-linejoin="round"/>
</g>
<path d="M21.3018 21.2482C20.8566 21.6831 20.1484 21.9148 19.4098 21.8091C18.9039 21.7359 18.479 21.5205 18.1855 21.2197" stroke="#031B0D" stroke-width="1.10684" stroke-linecap="round" stroke-linejoin="round"/>
<path d="M9.38363 6.39261L8.51675 6.30932C8.14524 6.27364 7.80864 6.45694 7.62935 6.79259L6.89029 8.20649C6.80865 8.38977 6.55954 8.28746 6.58727 8.11368L6.83677 6.54982C6.89952 6.17848 6.71459 5.78338 6.38683 5.60488L5.64532 5.19552C5.49675 5.09791 5.56965 4.85989 5.74011 4.88605L6.57639 4.98598C6.9479 5.02166 7.31509 4.82172 7.47107 4.47894L8.15623 3.07455C8.23787 2.89126 8.49426 2.9698 8.45925 3.16736L8.23301 4.73837C8.17027 5.10967 8.36253 5.481 8.69029 5.65951L9.43179 6.0689C9.63428 6.15693 9.55408 6.41877 9.38363 6.39261Z" fill="white"/>
</g>
<path d="M65.6418 13.3253C66.4692 13.3253 67.0061 13.3958 67.2526 13.5366C67.499 13.6598 67.6046 13.8799 67.5694 14.1967C67.5518 14.4432 67.4638 14.6456 67.3054 14.8041C67.1645 14.9449 67.0149 15.0417 66.8565 15.0945C66.7156 15.1297 66.4956 15.1825 66.1963 15.2529C65.9147 15.3058 65.7122 15.3498 65.589 15.385C66.4516 16.3708 66.8829 17.4622 66.8829 18.6593C66.8829 20.7189 65.9323 22.2328 64.0311 23.201C65.1577 23.4475 65.9587 23.8083 66.434 24.2836C66.9093 24.7413 67.1469 25.3223 67.1469 26.0264C67.1469 27.065 66.4868 27.91 65.1665 28.5613C63.8462 29.2303 62.2091 29.5647 60.2551 29.5647C58.3363 29.5647 56.8136 29.2655 55.6869 28.667C54.5779 28.0684 54.0234 27.2147 54.0234 26.1056C54.0234 25.6479 54.1818 25.243 54.4987 24.891C54.8155 24.5389 55.2644 24.3629 55.8454 24.3629C56.3735 24.3629 56.8224 24.5653 57.192 24.9702C57.5793 25.3751 57.861 25.824 58.037 26.3169C58.2307 26.8098 58.5123 27.2587 58.882 27.6635C59.2693 28.086 59.7358 28.2973 60.2815 28.2973C60.968 28.3149 61.505 28.1124 61.8922 27.69C62.2795 27.2851 62.4732 26.7482 62.4732 26.0792C62.4732 24.8646 62.1035 24.1516 61.3641 23.9404C60.9768 23.9756 60.66 23.9932 60.4135 23.9932C58.5475 23.9932 57.0072 23.5003 55.7926 22.5145C54.5955 21.5287 53.997 20.2524 53.997 18.6857C53.997 17.0133 54.5955 15.6578 55.7926 14.6192C57.0072 13.5806 58.5651 13.0613 60.4663 13.0613C60.9592 13.0613 61.7338 13.1053 62.79 13.1933C63.8462 13.2813 64.7968 13.3253 65.6418 13.3253ZM58.4067 16.5732C58.4067 17.9639 58.6796 19.3282 59.2253 20.6661C59.771 22.004 60.3871 22.6729 61.0737 22.6729C61.5138 22.6729 61.857 22.4793 62.1035 22.092C62.3675 21.6871 62.4996 21.1414 62.4996 20.4548C62.4996 19.205 62.2267 17.8759 61.681 16.4676C61.1353 15.0593 60.5015 14.3552 59.7798 14.3552C59.3573 14.3552 59.0228 14.5488 58.7764 14.9361C58.5299 15.3234 58.4067 15.8691 58.4067 16.5732ZM79.5229 21.8279C79.7165 21.6343 79.9278 21.5815 80.1566 21.6695C80.4031 21.7399 80.5175 21.9159 80.4999 22.1976C80.4647 23.0778 79.9542 23.9756 78.9684 24.891C77.9826 25.8064 76.7063 26.2641 75.1396 26.2641C73.2208 26.2641 71.654 25.6479 70.4394 24.4157C69.2247 23.1834 68.6174 21.5727 68.6174 19.5835C68.6174 17.6823 69.2511 16.1243 70.5186 14.9097C71.8037 13.6774 73.3352 13.0613 75.1132 13.0613C76.7151 13.0613 77.9562 13.431 78.8363 14.1703C79.7165 14.9097 80.1566 15.7458 80.1566 16.6788C80.1566 17.4182 79.8133 17.9639 79.1268 18.316L73.8721 21.2734C74.5938 22.4176 75.5973 22.9898 76.8823 22.9898C77.428 22.9898 77.9385 22.8841 78.4138 22.6729C78.9068 22.4441 79.2764 22.1624 79.5229 21.8279ZM74.6379 14.3552C74.1097 14.3552 73.6785 14.6192 73.344 15.1473C73.0271 15.6754 72.8687 16.3356 72.8687 17.1277C72.8687 18.184 73.0007 19.1082 73.2648 19.9003L75.7205 18.4216C76.1782 18.1047 76.407 17.6558 76.407 17.0749C76.407 16.494 76.2574 15.8955 75.9581 15.2794C75.6765 14.6632 75.2364 14.3552 74.6379 14.3552ZM95.9539 23.1218C95.9891 23.5619 96.1564 24.002 96.4556 24.4421C96.7549 24.8646 96.9045 25.1902 96.9045 25.4191V25.5247C96.9045 25.8592 96.6933 26.0264 96.2708 26.0264H90.9897C90.5672 26.0264 90.356 25.8592 90.356 25.5247V25.4191C90.356 25.2078 90.5232 24.8822 90.8577 24.4421C91.1921 24.002 91.3418 23.5619 91.3066 23.1218L91.0425 18.3952C90.9721 17.0925 90.7961 16.1683 90.5144 15.6226C90.2503 15.0769 89.819 14.8041 89.2205 14.8041C88.6572 14.8041 88.2259 15.0329 87.9266 15.4906C87.645 15.9483 87.5042 16.5732 87.5042 17.3654V23.1218C87.5042 23.5619 87.6978 24.002 88.0851 24.4421C88.4724 24.8822 88.666 25.2078 88.666 25.4191V25.5247C88.666 25.8592 88.4548 26.0264 88.0323 26.0264H82.3287C81.9062 26.0264 81.6949 25.8592 81.6949 25.5247V25.4191C81.6949 25.2078 81.8886 24.8822 82.2759 24.4421C82.6631 24.002 82.8568 23.5619 82.8568 23.1218V17.9199C82.8568 17.5502 82.7424 17.2422 82.5135 16.9957C82.2847 16.7317 82.047 16.5116 81.8006 16.3356C81.5717 16.1419 81.4573 15.9395 81.4573 15.7282V15.649C81.4573 15.4202 81.6685 15.2001 82.091 14.9889L85.7878 13.1669C86.1223 13.0261 86.3687 13.0261 86.5272 13.1669C86.7032 13.2901 86.7912 13.5014 86.7912 13.8006V15.0417C87.5306 13.7214 88.7892 13.0613 90.5672 13.0613C91.8875 13.0613 93.0229 13.4926 93.9735 14.3552C94.9241 15.2177 95.4698 16.6172 95.6107 18.5536L95.9539 23.1218ZM103.328 26.2641C101.99 26.2641 100.934 25.8416 100.159 24.9966C99.4023 24.1516 99.0238 22.9458 99.0238 21.379V15.1209H98.0204C97.8443 15.1209 97.6947 15.0681 97.5715 14.9625C97.4659 14.8393 97.413 14.6896 97.413 14.5136V13.9327C97.413 13.5278 97.6155 13.3253 98.0204 13.3253H98.5221C99.3318 13.3253 100.027 13.0877 100.608 12.6124C101.189 12.1195 101.568 11.4682 101.744 10.6584C101.832 10.2007 102.069 9.97184 102.457 9.97184H103.064C103.539 9.97184 103.777 10.2007 103.777 10.6584V13.3253H106.497C106.673 13.3253 106.813 13.387 106.919 13.5102C107.042 13.6158 107.104 13.7566 107.104 13.9327V14.5136C107.104 14.6896 107.042 14.8393 106.919 14.9625C106.813 15.0681 106.673 15.1209 106.497 15.1209H103.777V21.4582C103.777 21.8983 103.891 22.2504 104.12 22.5145C104.349 22.7609 104.631 22.8841 104.965 22.8841C105.722 22.8841 106.303 22.5585 106.708 21.9071C106.831 21.7487 106.972 21.6607 107.13 21.6431C107.289 21.6079 107.421 21.6343 107.526 21.7223C107.65 21.8103 107.711 21.9335 107.711 22.092C107.711 23.201 107.315 24.178 106.523 25.023C105.748 25.8504 104.683 26.2641 103.328 26.2641ZM108.987 26C108.582 26 108.38 25.8328 108.38 25.4983V25.3927C108.38 25.1814 108.547 24.8646 108.882 24.4421C109.234 24.002 109.41 23.5619 109.41 23.1218V11.0545C109.41 10.5968 109.234 10.1567 108.882 9.73419C108.547 9.29409 108.38 8.98603 108.38 8.80999V8.70437C108.38 8.51073 108.573 8.30829 108.961 8.09704L112.948 6.14303C113.318 5.9846 113.608 5.9758 113.819 6.11663C114.048 6.23985 114.163 6.43349 114.163 6.69755V23.1218C114.163 23.5619 114.356 24.002 114.744 24.4421C115.131 24.8646 115.324 25.1814 115.324 25.3927V25.4983C115.324 25.8328 115.113 26 114.691 26H108.987ZM130.157 13.3253C130.562 13.3253 130.765 13.4926 130.765 13.827V13.9327C130.765 14.1967 130.562 14.5576 130.157 15.0153C129.77 15.473 129.497 15.8867 129.339 16.2564L124.348 27.0034C124.102 27.5667 123.855 28.0508 123.609 28.4557C123.38 28.8782 123.054 29.3623 122.632 29.908C122.227 30.4713 121.743 30.9026 121.179 31.2019C120.616 31.5188 120.009 31.6772 119.357 31.6772C118.125 31.6772 117.113 31.3691 116.321 30.753C115.546 30.1369 115.159 29.4239 115.159 28.6141C115.159 28.0508 115.326 27.6019 115.661 27.2675C115.995 26.933 116.453 26.7658 117.034 26.7658C117.615 26.7658 118.064 26.9506 118.38 27.3203C118.715 27.69 118.917 28.086 118.988 28.5085C119.076 28.9486 119.199 29.3535 119.357 29.7232C119.516 30.0929 119.727 30.2777 119.991 30.2777C120.678 30.2777 121.505 29.1335 122.473 26.845L117.113 16.2564C116.919 15.8867 116.62 15.4818 116.215 15.0417C115.828 14.584 115.634 14.2143 115.634 13.9327V13.827C115.634 13.4926 115.837 13.3253 116.242 13.3253H121.919C122.306 13.3253 122.5 13.5014 122.5 13.8535V13.9591C122.5 14.1351 122.421 14.3376 122.262 14.5664C122.104 14.7952 121.998 15.0065 121.945 15.2001C121.892 15.3938 121.954 15.7635 122.13 16.3092L124.823 22.6465L127.253 16.7581C127.446 16.1067 127.446 15.6578 127.253 15.4114C127.077 15.1473 126.821 14.8833 126.487 14.6192C126.17 14.3552 126.012 14.1351 126.012 13.9591V13.8535C126.012 13.5014 126.214 13.3253 126.619 13.3253H130.157Z" fill="black"/>
<path d="M130.555 22.0007C131.173 21.3832 132.174 21.3827 132.792 22L133.016 22.2237L133.24 22C133.857 21.3825 134.859 21.3831 135.476 22.0007C136.094 22.6183 136.094 23.6191 135.476 24.2366L133.016 26.697L130.555 24.2366C129.938 23.6191 129.938 22.6182 130.555 22.0007Z" fill="black"/>
<defs>
<clipPath id="clip0_gg_logo">
<rect width="39.1525" height="39.1525" fill="white" transform="matrix(-1 0 0 1 39.1523 0)"/>
</clipPath>
</defs>
</svg>
