<svg width="192" height="107" viewBox="0 0 192 107" fill="none" xmlns="http://www.w3.org/2000/svg">
<path d="M76.0322 0C87.7273 0 98.1538 5.18629 104.937 13.2822C108.669 12.0725 112.669 11.417 116.829 11.417C132.694 11.417 146.226 20.9591 151.49 34.3662C152.594 34.2715 153.712 34.2207 154.842 34.2207C175.283 34.2207 191.854 50.0601 191.854 69.5986C191.854 89.1373 175.283 104.977 154.842 104.977C152.94 104.977 151.072 104.839 149.247 104.574C145.14 105.503 140.798 106.042 136.302 106.129V106.143H41.9873C40.3599 106.352 38.699 106.462 37.0117 106.462C16.5706 106.462 7.76518e-05 90.6225 0 71.084C0 51.5454 16.5706 35.7062 37.0117 35.7061C37.6869 35.7061 38.3581 35.7237 39.0244 35.7578C39.023 35.6313 39.0195 35.5047 39.0195 35.3779C39.0196 15.8393 55.591 2.759e-05 76.0322 0Z" fill="white"/>
</svg>
