<svg width="1824" height="928" viewBox="0 0 1824 928" fill="none" xmlns="http://www.w3.org/2000/svg">
<path d="M1824 928H0V0H1824V928Z" fill="#E1F4FF"/>
<path d="M484.033 137C495.728 137 506.155 142.186 512.938 150.282C516.67 149.072 520.67 148.416 524.83 148.416C540.695 148.416 554.227 157.959 559.491 171.366C560.595 171.271 561.713 171.221 562.843 171.221C583.284 171.221 599.855 187.06 599.855 206.599C599.855 226.137 583.284 241.977 562.843 241.977C560.941 241.977 559.073 241.839 557.248 241.574C553.141 242.503 548.799 243.042 544.303 243.129V243.142H449.995C448.365 243.351 446.702 243.462 445.013 243.462C424.572 243.462 408 227.623 408 208.084C408 188.545 424.571 172.706 445.013 172.706C445.688 172.706 446.359 172.724 447.025 172.758C447.024 172.631 447.021 172.505 447.021 172.378C447.021 152.839 463.592 137 484.033 137Z" fill="white"/>
<path d="M1331.03 218C1342.73 218 1353.15 223.186 1359.94 231.282C1363.67 230.072 1367.67 229.417 1371.83 229.417C1387.69 229.417 1401.23 238.959 1406.49 252.366C1407.59 252.271 1408.71 252.221 1409.84 252.221C1430.28 252.221 1446.85 268.06 1446.85 287.599C1446.85 307.137 1430.28 322.977 1409.84 322.977C1407.94 322.977 1406.07 322.839 1404.25 322.574C1400.14 323.503 1395.8 324.042 1391.3 324.129V324.143H1296.99C1295.36 324.352 1293.7 324.462 1292.01 324.462C1271.57 324.462 1255 308.623 1255 289.084C1255 269.545 1271.57 253.706 1292.01 253.706C1292.69 253.706 1293.36 253.724 1294.02 253.758C1294.02 253.631 1294.02 253.505 1294.02 253.378C1294.02 233.839 1310.59 218 1331.03 218Z" fill="white"/>
<path d="M1523.03 477C1534.73 477 1545.15 482.186 1551.94 490.282C1555.67 489.072 1559.67 488.417 1563.83 488.417C1579.69 488.417 1593.23 497.959 1598.49 511.366C1599.59 511.271 1600.71 511.221 1601.84 511.221C1622.28 511.221 1638.85 527.06 1638.85 546.599C1638.85 566.137 1622.28 581.977 1601.84 581.977C1599.94 581.977 1598.07 581.839 1596.25 581.574C1592.14 582.503 1587.8 583.042 1583.3 583.129V583.143H1488.99C1487.36 583.352 1485.7 583.462 1484.01 583.462C1463.57 583.462 1447 567.623 1447 548.084C1447 528.545 1463.57 512.706 1484.01 512.706C1484.69 512.706 1485.36 512.724 1486.02 512.758C1486.02 512.631 1486.02 512.505 1486.02 512.378C1486.02 492.839 1502.59 477 1523.03 477Z" fill="white"/>
<path d="M628.032 391C639.727 391 650.154 396.186 656.937 404.282C660.669 403.072 664.669 402.417 668.829 402.417C684.694 402.417 698.226 411.959 703.49 425.366C704.594 425.271 705.712 425.221 706.842 425.221C727.283 425.221 743.854 441.06 743.854 460.599C743.854 480.137 727.283 495.977 706.842 495.977C704.94 495.977 703.072 495.839 701.247 495.574C697.14 496.503 692.798 497.042 688.302 497.129V497.143H593.987C592.36 497.352 590.699 497.462 589.012 497.462C568.571 497.462 552 481.623 552 462.084C552 442.545 568.571 426.706 589.012 426.706C589.687 426.706 590.358 426.724 591.024 426.758C591.023 426.631 591.02 426.505 591.02 426.378C591.02 406.839 607.591 391 628.032 391Z" fill="white"/>
<path d="M261.032 444C272.727 444 283.154 449.186 289.937 457.282C293.669 456.072 297.669 455.417 301.829 455.417C317.694 455.417 331.226 464.959 336.49 478.366C337.594 478.271 338.712 478.221 339.842 478.221C360.283 478.221 376.854 494.06 376.854 513.599C376.854 533.137 360.283 548.977 339.842 548.977C337.94 548.977 336.072 548.839 334.247 548.574C330.14 549.503 325.798 550.042 321.302 550.129V550.143H226.987C225.36 550.352 223.699 550.462 222.012 550.462C201.571 550.462 185 534.623 185 515.084C185 495.545 201.571 479.706 222.012 479.706C222.687 479.706 223.358 479.724 224.024 479.758C224.023 479.631 224.02 479.505 224.02 479.378C224.02 459.839 240.591 444 261.032 444Z" fill="white"/>
</svg>
