<svg width="40" height="40" viewBox="0 0 40 40" fill="none" xmlns="http://www.w3.org/2000/svg">
<g clip-path="url(#clip0_636_6863)">
<mask id="mask0_636_6863" style="mask-type:luminance" maskUnits="userSpaceOnUse" x="0" y="0" width="40" height="40">
<path d="M9.00063 0H30.152C35.1229 0 39.1526 4.0297 39.1526 9.00058V30.152C39.1526 35.1228 35.1229 39.1525 30.152 39.1525H9.00063C4.02974 39.1525 4.57764e-05 35.1228 4.57764e-05 30.152V9.00058C4.57764e-05 4.0297 4.02974 0 9.00063 0Z" fill="white"/>
</mask>
<g mask="url(#mask0_636_6863)">
<path d="M9.00112 -0.000289917H30.1525C35.1234 -0.000289917 39.1531 4.02941 39.1531 9.00029V30.1517C39.1531 35.1226 35.1234 39.1523 30.1525 39.1523H9.00112C4.03023 39.1523 0.000534058 35.1226 0.000534058 30.1517V9.00029C0.000534058 4.02941 4.03023 -0.000289917 9.00112 -0.000289917Z" fill="white"/>
<g opacity="0.5">
<mask id="mask1_636_6863" style="mask-type:luminance" maskUnits="userSpaceOnUse" x="0" y="-1" width="40" height="41">
<path d="M0.000534058 -0.000289917H39.1531V39.1523H0.000534058V-0.000289917Z" fill="white"/>
</mask>
<g mask="url(#mask1_636_6863)">
<path d="M0.000534058 -0.000289917H39.1531V39.1523H0.000534058V-0.000289917Z" fill="#F8F9FA"/>
<path d="M39.1531 27.0031H-0.181894" stroke="#007AFF" stroke-width="0.038413"/>
<path d="M39.1531 19.6668H-0.181894" stroke="#007AFF" stroke-width="0.038413"/>
<path d="M39.1531 12.3305H-0.181894" stroke="#007AFF" stroke-width="0.038413"/>
<path d="M12.1497 39.3347V-0.000289917" stroke="#007AFF" stroke-width="0.038413"/>
<path d="M19.4875 39.3347V-0.000289917" stroke="#007AFF" stroke-width="0.038413"/>
<path d="M26.8223 39.3347V-0.000289917" stroke="#007AFF" stroke-width="0.038413"/>
<path d="M-0.181894 39.3347L39.1531 -0.000289917" stroke="#007AFF" stroke-width="0.038413"/>
<path d="M39.1531 39.3347L-0.181894 -0.000289917" stroke="#007AFF" stroke-width="0.038413"/>
<path d="M2.56224 2.56145H36.5913V36.5905H2.56224V2.56145Z" stroke="#007AFF" stroke-width="0.038413"/>
<path d="M19.5747 26.9134C15.5227 26.9134 12.2379 23.6286 12.2379 19.5765C12.2379 15.5245 15.5227 12.2397 19.5747 12.2397C23.6268 12.2397 26.9116 15.5245 26.9116 19.5765C26.9116 23.6286 23.6268 26.9134 19.5747 26.9134Z" stroke="#007AFF" stroke-width="0.038413"/>
<path d="M19.5766 29.9092C13.8697 29.9092 9.24346 25.2829 9.24346 19.5761C9.24346 13.8693 13.8697 9.243 19.5766 9.243C25.2834 9.243 29.9097 13.8693 29.9097 19.5761C29.9097 25.2829 25.2834 29.9092 19.5766 29.9092Z" stroke="#007AFF" stroke-width="0.038413"/>
<path d="M19.4849 36.7601C10.0442 36.7601 2.39111 29.107 2.39111 19.6664C2.39111 10.2257 10.0442 2.5726 19.4849 2.5726C28.9255 2.5726 36.5786 10.2257 36.5786 19.6664C36.5786 29.107 28.9255 36.7601 19.4849 36.7601Z" stroke="#007AFF" stroke-width="0.038413"/>
</g>
<path d="M0.0199089 0.0188274H39.134V39.133H0.0199089V0.0188274Z" stroke="#FF3B30" stroke-width="0.038413"/>
</g>
<path d="M-0.237785 -1.84512H40.0489C41.3984 -1.84512 42.4924 -0.751133 42.4924 0.598374V38.5804C42.4924 39.9299 41.3984 41.0238 40.0489 41.0238H-0.237785C-1.58729 41.0238 -2.68129 39.9299 -2.68129 38.5804V0.598374C-2.68129 -0.751133 -1.58729 -1.84512 -0.237785 -1.84512Z" fill="#FFD12B"/>
<path d="M47.7613 11.0936C40.6908 4.02313 29.2269 4.02304 22.1563 11.0936L19.5981 13.6518L17.0398 11.0936C9.96926 4.02305 -1.4946 4.02315 -8.56518 11.0936C-15.6356 18.164 -15.6356 29.6279 -8.56518 36.6985L-6.00681 39.2567L-6.00852 39.2584L19.5964 64.8633L19.5981 64.8618L19.5998 64.8633L45.2047 39.2584L45.203 39.2567L47.7613 36.6985C54.8318 29.6279 54.8318 18.164 47.7613 11.0936Z" fill="#FDBB30"/>
<path d="M38.7556 23.2405C33.9646 18.4499 26.1969 18.4506 21.406 23.2414L19.6723 24.9751L17.9378 23.2405C13.1469 18.4501 5.3799 18.45 0.589096 23.2405C-4.20183 28.0315 -4.20244 35.7992 0.588242 40.5903L2.3227 42.3247L19.6716 59.6752H19.6731L37.0228 42.3256L38.7556 40.591C43.5466 35.8001 43.5466 28.0316 38.7556 23.2405Z" fill="#2BA1FB"/>
<path d="M29.1053 30.3252C26.7324 27.9524 22.885 27.9518 20.5121 30.3243L19.6528 31.1836L18.7944 30.3252C16.4215 27.9523 12.5749 27.9524 10.202 30.3252C7.82899 32.6982 7.82813 36.5455 10.2011 38.9184L19.6537 48.3709L28.2469 39.7777L29.1053 38.9176C31.4778 36.5447 31.478 32.6981 29.1053 30.3252Z" fill="#2B5DE9"/>
<path d="M23.8692 27.6287C22.8078 26.5675 21.0872 26.5682 20.0259 27.6296L19.6423 28.0131L19.2579 27.6287C18.1965 26.5673 16.4752 26.5673 15.4136 27.6287C14.3522 28.6901 14.3522 30.4115 15.4136 31.4729L19.6415 35.7006L23.8692 31.4729C24.9306 30.4115 24.9306 28.6901 23.8692 27.6287Z" fill="white"/>
<path d="M14.1492 16.9684C14.6861 18.0194 15.5401 18.5794 16.4308 18.324C17.0409 18.147 17.5534 17.6264 17.9072 16.8995" stroke="#031B0D" stroke-width="1.05363" stroke-linecap="round" stroke-linejoin="round"/>
<path d="M21.4011 16.9684C21.938 18.0194 22.7922 18.5794 23.6829 18.324C24.2929 18.147 24.8053 17.6264 25.1592 16.8995" stroke="#031B0D" stroke-width="1.05363" stroke-linecap="round" stroke-linejoin="round"/>
</g>
<path d="M21.3018 21.2482C20.8566 21.6832 20.1484 21.9149 19.4098 21.8092C18.9039 21.736 18.479 21.5206 18.1855 21.2198" stroke="#031B0D" stroke-width="1.10684" stroke-linecap="round" stroke-linejoin="round"/>
<path d="M9.38387 6.39244L8.51699 6.30916C8.14548 6.27348 7.80889 6.45678 7.62959 6.79242L6.89053 8.20632C6.8089 8.38961 6.55978 8.28729 6.58752 8.11351L6.83701 6.54966C6.89976 6.17832 6.71483 5.78321 6.38707 5.60471L5.64556 5.19536C5.49699 5.09775 5.56989 4.85973 5.74035 4.88589L6.57664 4.98581C6.94815 5.02149 7.31533 4.82155 7.47132 4.47877L8.15647 3.07438C8.23811 2.8911 8.49451 2.96963 8.45949 3.16719L8.23325 4.7382C8.17052 5.1095 8.36277 5.48084 8.69053 5.65934L9.43203 6.06874C9.63453 6.15677 9.55433 6.4186 9.38387 6.39244Z" fill="white"/>
</g>
<defs>
<clipPath id="clip0_636_6863">
<rect width="39.1525" height="39.1525" fill="white" transform="matrix(-1 0 0 1 39.1526 0)"/>
</clipPath>
</defs>
</svg>
