<svg width="381" height="26" viewBox="0 0 381 26" fill="none" xmlns="http://www.w3.org/2000/svg">
<path d="M0.633886 20.1244C0.211326 20.1244 4.63518e-05 19.9571 4.63518e-05 19.6226V19.517C4.63518e-05 19.3057 0.176113 18.9888 0.528246 18.5662C0.88038 18.126 1.05645 17.6859 1.05645 17.2457V4.25198C1.05645 3.81181 0.88038 3.38045 0.528246 2.95789C0.176113 2.51772 4.63518e-05 2.192 4.63518e-05 1.98072V1.87508C4.63518e-05 1.54055 0.202523 1.37329 0.607476 1.37329H13.0202C13.3019 1.37329 13.5044 1.44372 13.6276 1.58457C13.7685 1.70782 13.8653 1.9191 13.9181 2.21841L14.552 5.54607C14.5872 5.77496 14.5432 5.95983 14.4199 6.10068C14.2967 6.24153 14.1206 6.31196 13.8917 6.31196H13.7597C13.4251 6.31196 13.0818 6.1535 12.7297 5.83658C12.3951 5.50205 12.0958 5.14992 11.8317 4.78018C11.5852 4.39283 11.2595 4.0407 10.8546 3.72378C10.4672 3.38925 10.0623 3.22199 9.6397 3.22199H7.10434C6.29443 3.22199 5.88948 3.64455 5.88948 4.48967V10.4055H8.8474C9.1291 10.4055 9.3844 10.2999 9.61329 10.0886C9.85978 9.8597 10.0535 9.61321 10.1943 9.34911C10.3352 9.0674 10.4936 8.82091 10.6697 8.60963C10.8634 8.38074 11.0394 8.2663 11.1979 8.2663H11.4356C11.7701 8.2663 11.9374 8.46878 11.9374 8.87373V13.6275C11.9374 14.0325 11.7701 14.235 11.4356 14.235H11.1979C10.9866 14.235 10.7665 14.0765 10.5376 13.7596C10.3264 13.4251 10.0799 13.0905 9.79816 12.756C9.51645 12.4215 9.19953 12.2542 8.8474 12.2542H5.88948V17.2457C5.88948 17.6859 6.08315 18.126 6.4705 18.5662C6.87545 18.9888 7.07793 19.3057 7.07793 19.517V19.6226C7.07793 19.9571 6.86665 20.1244 6.44409 20.1244H0.633886ZM21.2819 20.3885C19.2396 20.3885 17.5053 19.7635 16.0792 18.5134C14.6706 17.2457 13.9664 15.6611 13.9664 13.7596C13.9664 11.8581 14.6706 10.2911 16.0792 9.0586C17.4877 7.80853 19.1603 7.18349 21.0971 7.18349C23.1042 7.18349 24.8121 7.80853 26.2206 9.0586C27.6291 10.3087 28.3334 11.8933 28.3334 13.8124C28.3334 15.7139 27.6467 17.2897 26.2734 18.5398C24.9001 19.7723 23.2363 20.3885 21.2819 20.3885ZM21.8365 19.0944C22.9634 19.0944 23.5268 18.0116 23.5268 15.846C23.5268 15.0537 23.4123 14.1117 23.1834 13.0201C22.9722 11.9285 22.6024 10.8985 22.0742 9.93013C21.5636 8.96176 20.9914 8.47758 20.3576 8.47758C19.7413 8.47758 19.3012 8.75048 19.0371 9.29629C18.773 9.8421 18.6409 10.6696 18.6409 11.7788C18.6409 12.3598 18.7114 13.0465 18.8522 13.8388C18.9931 14.6311 19.1867 15.4322 19.4332 16.2421C19.6797 17.0344 20.0142 17.7123 20.4368 18.2757C20.877 18.8215 21.3435 19.0944 21.8365 19.0944ZM38.4198 7.18349C39.1769 7.18349 39.7755 7.42998 40.2157 7.92297C40.6735 8.41596 40.9024 9.04099 40.9024 9.79808C40.9024 11.4531 40.2245 12.2806 38.8688 12.2806C38.323 12.2806 37.9092 12.1574 37.6275 11.9109C37.3458 11.6468 37.1786 11.3563 37.1257 11.0393C37.0905 10.7224 37.0025 10.4407 36.8616 10.1942C36.7208 9.93013 36.5095 9.79808 36.2278 9.79808C35.5764 9.79808 35.2506 10.6432 35.2506 12.3334V17.2457C35.2506 17.6859 35.4795 18.126 35.9373 18.5662C36.4127 18.9888 36.6504 19.3057 36.6504 19.517V19.6226C36.6504 19.9571 36.4391 20.1244 36.0165 20.1244H30.3384C29.9158 20.1244 29.7045 19.9571 29.7045 19.6226V19.517C29.7045 19.3057 29.8806 18.9888 30.2327 18.5662C30.5849 18.126 30.7609 17.6859 30.7609 17.2457V11.9901C30.7609 11.638 30.6553 11.3387 30.444 11.0922C30.2327 10.8457 30.0215 10.6344 29.8102 10.4583C29.5989 10.2823 29.4933 10.0886 29.4933 9.87731V9.79808C29.4933 9.49877 29.6957 9.24347 30.1007 9.03219L33.8245 7.28913C34.1766 7.16588 34.4231 7.15708 34.564 7.26272C34.7048 7.36836 34.7753 7.57084 34.7753 7.87015V9.79808C35.3739 8.05502 36.5887 7.18349 38.4198 7.18349ZM59.1658 7.44759C59.5708 7.44759 59.7733 7.61485 59.7733 7.94938V8.05502C59.7733 8.31912 59.5708 8.68006 59.1658 9.13783C58.7785 9.5956 58.5056 10.0094 58.3471 10.3791L53.3556 21.128C53.1091 21.6914 52.8626 22.1756 52.6161 22.5805C52.3873 23.0031 52.0615 23.4873 51.639 24.0331C51.234 24.5965 50.7498 25.0278 50.1864 25.3272C49.623 25.6441 49.0156 25.8025 48.3641 25.8025C47.1317 25.8025 46.1193 25.4944 45.327 24.8782C44.5523 24.262 44.1649 23.5489 44.1649 22.739C44.1649 22.1756 44.3322 21.7266 44.6667 21.3921C45.0013 21.0575 45.459 20.8903 46.0401 20.8903C46.6211 20.8903 47.07 21.0751 47.387 21.4449C47.7215 21.8146 47.924 22.2108 47.9944 22.6333C48.0824 23.0735 48.2057 23.4785 48.3641 23.8482C48.5226 24.2179 48.7339 24.4028 48.998 24.4028C49.6846 24.4028 50.5121 23.2584 51.4805 20.9695L46.1193 10.3791C45.9256 10.0094 45.6263 9.60441 45.2213 9.16424C44.834 8.70647 44.6403 8.33673 44.6403 8.05502V7.94938C44.6403 7.61485 44.8428 7.44759 45.2478 7.44759H50.9259C51.3133 7.44759 51.5069 7.62366 51.5069 7.97579V8.08143C51.5069 8.2575 51.4277 8.45997 51.2692 8.68886C51.1108 8.91775 51.0051 9.12903 50.9523 9.3227C50.8995 9.51637 50.9611 9.88611 51.1372 10.4319L53.831 16.7703L56.2607 10.8809C56.4544 10.2294 56.4544 9.78047 56.2607 9.53398C56.0847 9.26988 55.8294 9.00578 55.4948 8.74168C55.1779 8.47758 55.0195 8.2575 55.0195 8.08143V7.97579C55.0195 7.62366 55.2219 7.44759 55.6269 7.44759H59.1658ZM66.9578 20.3885C64.9155 20.3885 63.1812 19.7635 61.7551 18.5134C60.3465 17.2457 59.6423 15.6611 59.6423 13.7596C59.6423 11.8581 60.3465 10.2911 61.7551 9.0586C63.1636 7.80853 64.8362 7.18349 66.773 7.18349C68.7801 7.18349 70.488 7.80853 71.8965 9.0586C73.305 10.3087 74.0093 11.8933 74.0093 13.8124C74.0093 15.7139 73.3226 17.2897 71.9493 18.5398C70.576 19.7723 68.9122 20.3885 66.9578 20.3885ZM67.5124 19.0944C68.6393 19.0944 69.2027 18.0116 69.2027 15.846C69.2027 15.0537 69.0882 14.1117 68.8593 13.0201C68.6481 11.9285 68.2783 10.8985 67.7501 9.93013C67.2395 8.96176 66.6673 8.47758 66.0335 8.47758C65.4172 8.47758 64.9771 8.75048 64.713 9.29629C64.4489 9.8421 64.3168 10.6696 64.3168 11.7788C64.3168 12.3598 64.3873 13.0465 64.5281 13.8388C64.669 14.6311 64.8626 15.4322 65.1091 16.2421C65.3556 17.0344 65.6901 17.7123 66.1127 18.2757C66.5529 18.8215 67.0194 19.0944 67.5124 19.0944ZM88.7439 17.2193C88.7439 17.6947 88.7967 18.0556 88.9024 18.3021C89.0256 18.5486 89.1577 18.6894 89.2985 18.7247C89.457 18.7423 89.589 18.8039 89.6947 18.9095C89.8179 19.0152 89.8795 19.1824 89.8795 19.4113C89.8795 19.7458 89.6506 19.9747 89.1929 20.098C88.7527 20.2212 88.0748 20.2828 87.1593 20.2828C86.3318 20.2828 85.7244 20.1684 85.337 19.9395C84.9673 19.7106 84.7472 19.3145 84.6768 18.7511C83.9725 19.8427 82.7312 20.3885 80.9529 20.3885C79.5444 20.3885 78.3648 19.9307 77.414 19.0152C76.4809 18.082 76.0143 16.8055 76.0143 15.1857V10.7752C76.0143 10.3175 75.8382 9.87731 75.4861 9.45475C75.1339 9.03219 74.9579 8.73288 74.9579 8.55681V8.45117C74.9579 8.09904 75.1604 7.89656 75.5653 7.84374L79.5004 7.31554C80.3279 7.2099 80.7417 7.38597 80.7417 7.84374L80.6624 15.6611C80.6448 16.7175 80.7681 17.4834 81.0322 17.9588C81.3139 18.4165 81.754 18.6454 82.3527 18.6454C82.8457 18.6454 83.2594 18.4077 83.5939 17.9324C83.9285 17.4394 84.0957 16.7967 84.0957 16.0044V10.7752C84.0957 10.3175 83.9197 9.87731 83.5675 9.45475C83.2154 9.03219 83.0393 8.73288 83.0393 8.55681V8.45117C83.0393 8.09904 83.2418 7.89656 83.6468 7.84374L87.5819 7.31554C88.3565 7.2099 88.7439 7.38597 88.7439 7.84374V17.2193ZM92.6975 24.1387C92.3981 24.3148 92.1252 24.262 91.8787 23.9802C91.6323 23.7161 91.6323 23.4697 91.8787 23.2408C92.4246 22.6774 92.8031 22.246 93.0144 21.9467C93.2257 21.6474 93.3489 21.3216 93.3841 20.9695C93.4193 20.5822 93.3049 20.3885 93.0408 20.3885C92.5126 20.3885 92.0636 20.1596 91.6939 19.7018C91.3241 19.2264 91.1393 18.6366 91.1393 17.9324C91.1393 17.0872 91.377 16.4094 91.8523 15.8988C92.3453 15.3706 92.9968 15.1065 93.8067 15.1065C94.5814 15.1065 95.2416 15.397 95.7874 15.978C96.3508 16.559 96.6325 17.3337 96.6325 18.3021C96.6325 20.591 95.3209 22.5365 92.6975 24.1387ZM121.203 7.44759C121.591 7.44759 121.784 7.61485 121.784 7.94938V8.05502C121.784 8.30151 121.555 8.64484 121.098 9.08501C120.64 9.50757 120.341 9.93013 120.2 10.3527L116.925 19.4377C116.766 19.8955 116.458 20.1244 116.001 20.1244H114.944C114.434 20.1244 114.117 19.8955 113.993 19.4377L111.828 12.3863L109.636 19.4377C109.512 19.8955 109.204 20.1244 108.711 20.1244H107.972C107.549 20.1244 107.232 19.8955 107.021 19.4377L103.271 10.3527C103.112 9.96534 102.84 9.55159 102.452 9.11142C102.082 8.67125 101.898 8.31912 101.898 8.05502V7.94938C101.898 7.61485 102.1 7.44759 102.505 7.44759H107.813C108.201 7.44759 108.394 7.62366 108.394 7.97579V8.08143C108.394 8.2575 108.289 8.45117 108.078 8.66245C107.866 8.85612 107.69 9.09381 107.549 9.37552C107.426 9.63962 107.435 9.98295 107.576 10.4055L109.292 15.6347L111.484 8.13425C111.608 7.7469 111.828 7.55323 112.145 7.55323L113.756 7.52682C114.108 7.52682 114.337 7.70289 114.442 8.05502L116.582 15.5819L118.219 10.8545C118.377 10.4319 118.404 10.071 118.298 9.77167C118.193 9.45475 118.052 9.21706 117.876 9.0586C117.7 8.90014 117.524 8.73288 117.347 8.55681C117.171 8.38074 117.083 8.22228 117.083 8.08143V7.97579C117.083 7.62366 117.286 7.44759 117.691 7.44759H121.203ZM136.368 17.2193C136.403 17.6595 136.57 18.0996 136.869 18.5398C137.169 18.9623 137.318 19.2881 137.318 19.517V19.6226C137.318 19.9571 137.107 20.1244 136.685 20.1244H131.429C131.006 20.1244 130.795 19.9571 130.795 19.6226V19.517C130.795 19.3057 130.954 18.98 131.271 18.5398C131.605 18.0996 131.763 17.6595 131.746 17.2193L131.482 12.307C131.411 11.0922 131.235 10.2294 130.954 9.71885C130.672 9.19065 130.232 8.92655 129.633 8.92655C129.07 8.92655 128.638 9.15544 128.339 9.61321C128.057 10.071 127.916 10.696 127.916 11.4883V17.2457C127.916 17.6859 128.11 18.126 128.497 18.5662C128.902 18.9888 129.105 19.3057 129.105 19.517V19.6226C129.105 19.9571 128.894 20.1244 128.471 20.1244H122.74C122.335 20.1244 122.133 19.9571 122.133 19.6226V19.517C122.133 19.3057 122.326 18.9888 122.714 18.5662C123.101 18.126 123.295 17.6859 123.295 17.2457V4.99146C123.295 4.53369 123.075 4.11993 122.634 3.75019C122.212 3.38045 122.001 3.08994 122.001 2.87866V2.79943C122.001 2.48251 122.203 2.23602 122.608 2.05995L126.781 0.21125C127.08 0.0703959 127.318 0.052789 127.494 0.158429C127.688 0.264068 127.784 0.466545 127.784 0.765859V8.42476C128.577 7.59725 129.651 7.18349 131.006 7.18349C132.309 7.18349 133.436 7.60605 134.387 8.45117C135.338 9.27868 135.883 10.6168 136.024 12.4655L136.368 17.2193ZM149.161 15.9516C149.355 15.7579 149.566 15.7051 149.795 15.7931C150.042 15.8636 150.156 16.0396 150.138 16.3213C150.103 17.2017 149.593 18.0996 148.607 19.0152C147.621 19.9307 146.344 20.3885 144.777 20.3885C142.858 20.3885 141.291 19.7723 140.076 18.5398C138.861 17.3073 138.254 15.6963 138.254 13.7068C138.254 11.8052 138.888 10.247 140.155 9.03219C141.441 7.79972 142.972 7.18349 144.751 7.18349C146.353 7.18349 147.594 7.55323 148.475 8.29271C149.355 9.03219 149.795 9.86851 149.795 10.8017C149.795 11.5411 149.452 12.0869 148.765 12.4391L143.509 15.397C144.231 16.5414 145.235 17.1136 146.52 17.1136C147.066 17.1136 147.577 17.008 148.052 16.7967C148.545 16.5678 148.915 16.2861 149.161 15.9516ZM144.275 8.47758C143.747 8.47758 143.316 8.74168 142.981 9.26988C142.664 9.79808 142.506 10.4583 142.506 11.2506C142.506 12.307 142.638 13.2314 142.902 14.0237L145.358 12.5447C145.816 12.2278 146.045 11.7788 146.045 11.1978C146.045 10.6168 145.895 10.0182 145.596 9.40193C145.314 8.7857 144.874 8.47758 144.275 8.47758ZM165.595 17.2457C165.63 17.6859 165.798 18.126 166.097 18.5662C166.396 18.9888 166.546 19.3145 166.546 19.5434V19.649C166.546 19.9835 166.335 20.1508 165.912 20.1508H160.63C160.207 20.1508 159.996 19.9835 159.996 19.649V19.5434C159.996 19.3321 160.163 19.0064 160.498 18.5662C160.833 18.126 160.982 17.6859 160.947 17.2457L160.683 12.5183C160.612 11.2154 160.436 10.2911 160.155 9.74526C159.891 9.19945 159.459 8.92655 158.861 8.92655C158.297 8.92655 157.866 9.15544 157.566 9.61321C157.285 10.071 157.144 10.696 157.144 11.4883V17.2457C157.144 17.6859 157.338 18.126 157.725 18.5662C158.112 19.0064 158.306 19.3321 158.306 19.5434V19.649C158.306 19.9835 158.095 20.1508 157.672 20.1508H151.968C151.545 20.1508 151.334 19.9835 151.334 19.649V19.5434C151.334 19.3321 151.527 19.0064 151.915 18.5662C152.302 18.126 152.496 17.6859 152.496 17.2457V12.0429C152.496 11.6732 152.381 11.3651 152.152 11.1186C151.924 10.8545 151.686 10.6344 151.439 10.4583C151.21 10.2647 151.096 10.0622 151.096 9.8509V9.77167C151.096 9.54278 151.307 9.3227 151.73 9.11142L155.427 7.28913C155.762 7.14828 156.008 7.14828 156.167 7.28913C156.343 7.41238 156.431 7.62366 156.431 7.92297V9.16424C157.17 7.84374 158.429 7.18349 160.207 7.18349C161.528 7.18349 162.664 7.61485 163.614 8.47758C164.565 9.34031 165.111 10.74 165.252 12.6768L165.595 17.2457ZM173.214 20.1244C172.809 20.1244 172.607 19.9571 172.607 19.6226V19.517C172.607 19.3057 172.774 18.9888 173.109 18.5662C173.461 18.126 173.637 17.6859 173.637 17.2457V5.17633C173.637 4.71856 173.461 4.27839 173.109 3.85583C172.774 3.41566 172.607 3.10755 172.607 2.93148V2.82584C172.607 2.63217 172.801 2.42969 173.188 2.21841L177.176 0.264069C177.546 0.105609 177.836 0.0968056 178.047 0.237659C178.276 0.360905 178.391 0.554579 178.391 0.81868V17.2457C178.391 17.6859 178.584 18.126 178.972 18.5662C179.359 18.9888 179.553 19.3057 179.553 19.517V19.6226C179.553 19.9571 179.342 20.1244 178.919 20.1244H173.214ZM184.247 5.8894C183.349 5.8894 182.618 5.64291 182.055 5.14992C181.491 4.63933 181.21 4.00549 181.21 3.2484C181.21 2.49131 181.491 1.86628 182.055 1.37329C182.618 0.862696 183.349 0.607399 184.247 0.607399C185.127 0.607399 185.849 0.862696 186.412 1.37329C186.976 1.86628 187.257 2.49131 187.257 3.2484C187.257 4.00549 186.976 4.63933 186.412 5.14992C185.849 5.64291 185.127 5.8894 184.247 5.8894ZM181.421 20.1244C180.998 20.1244 180.787 19.9571 180.787 19.6226V19.517C180.787 19.3057 180.963 18.98 181.315 18.5398C181.667 18.0996 181.843 17.6595 181.843 17.2193V12.2014C181.843 11.7436 181.667 11.3034 181.315 10.8809C180.963 10.4407 180.787 10.1414 180.787 9.98295V9.87731C180.787 9.66603 180.989 9.46355 181.394 9.26988L185.382 7.31554C185.752 7.15708 186.043 7.13947 186.254 7.26272C186.465 7.38597 186.571 7.58844 186.571 7.87015V17.2193C186.571 17.6595 186.764 18.0996 187.152 18.5398C187.557 18.98 187.759 19.3057 187.759 19.517V19.6226C187.759 19.9571 187.539 20.1244 187.099 20.1244H181.421ZM195.116 2.08636C194.518 2.08636 194.174 2.4561 194.086 3.19558C194.016 3.93506 194.086 4.70975 194.298 5.51966C194.526 6.31196 194.782 6.9546 195.063 7.44759H198.048C198.224 7.44759 198.365 7.50921 198.47 7.63246C198.594 7.7381 198.655 7.87895 198.655 8.05502V8.63604C198.655 8.81211 198.594 8.96176 198.47 9.08501C198.365 9.19065 198.224 9.24347 198.048 9.24347H195.169V17.2193C195.169 17.6771 195.407 18.126 195.882 18.5662C196.358 18.9888 196.595 19.3057 196.595 19.517V19.6226C196.595 19.9571 196.393 20.1244 195.988 20.1244H190.178C189.773 20.1244 189.57 19.9571 189.57 19.6226V19.517C189.57 19.3057 189.746 18.9888 190.098 18.5662C190.451 18.126 190.627 17.6771 190.627 17.2193V9.24347H188.91C188.734 9.24347 188.584 9.19065 188.461 9.08501C188.355 8.96176 188.302 8.81211 188.302 8.63604V8.05502C188.302 7.87895 188.355 7.7381 188.461 7.63246C188.584 7.50921 188.734 7.44759 188.91 7.44759H190.627V6.12709C190.627 4.5601 191.084 3.28361 192 2.29764C192.915 1.31167 194.28 0.81868 196.093 0.81868C197.255 0.81868 198.25 1.15321 199.078 1.82226C199.905 2.49131 200.319 3.27481 200.319 4.17275C200.319 4.5777 200.169 4.94744 199.87 5.28197C199.571 5.59889 199.148 5.75735 198.602 5.75735C198.021 5.75735 197.564 5.6341 197.229 5.38761C196.895 5.12351 196.666 4.81539 196.542 4.46326C196.437 4.09352 196.349 3.73258 196.278 3.38045C196.208 3.02832 196.085 2.729 195.909 2.48251C195.733 2.21841 195.468 2.08636 195.116 2.08636ZM209.357 15.9516C209.551 15.7579 209.762 15.7051 209.991 15.7931C210.238 15.8636 210.352 16.0396 210.335 16.3213C210.299 17.2017 209.789 18.0996 208.803 19.0152C207.817 19.9307 206.54 20.3885 204.973 20.3885C203.054 20.3885 201.487 19.7723 200.272 18.5398C199.058 17.3073 198.45 15.6963 198.45 13.7068C198.45 11.8052 199.084 10.247 200.352 9.03219C201.637 7.79972 203.169 7.18349 204.947 7.18349C206.549 7.18349 207.79 7.55323 208.671 8.29271C209.551 9.03219 209.991 9.86851 209.991 10.8017C209.991 11.5411 209.648 12.0869 208.961 12.4391L203.706 15.397C204.428 16.5414 205.431 17.1136 206.716 17.1136C207.262 17.1136 207.773 17.008 208.248 16.7967C208.741 16.5678 209.111 16.2861 209.357 15.9516ZM204.472 8.47758C203.943 8.47758 203.512 8.74168 203.178 9.26988C202.861 9.79808 202.702 10.4583 202.702 11.2506C202.702 12.307 202.834 13.2314 203.098 14.0237L205.554 12.5447C206.012 12.2278 206.241 11.7788 206.241 11.1978C206.241 10.6168 206.091 10.0182 205.792 9.40193C205.51 8.7857 205.07 8.47758 204.472 8.47758ZM224.98 7.18349C226.618 7.18349 228.061 7.7469 229.311 8.87373C230.579 9.98295 231.213 11.5411 231.213 13.5483C231.213 15.5731 230.597 17.2193 229.364 18.487C228.149 19.7546 226.688 20.3885 224.98 20.3885C223.677 20.3885 222.612 20.0011 221.785 19.2264V19.4641C221.785 19.9219 221.556 20.1508 221.098 20.1508L217.11 20.1244C216.705 20.1244 216.503 19.9571 216.503 19.6226V19.517C216.503 19.3057 216.679 18.9888 217.031 18.5662C217.383 18.126 217.559 17.6771 217.559 17.2193V5.20274C217.559 4.74497 217.339 4.32241 216.899 3.93506C216.476 3.53011 216.265 3.22199 216.265 3.01071V2.90507C216.265 2.62336 216.503 2.37687 216.978 2.16559L221.045 0.290479C221.38 0.114412 221.67 0.0791986 221.917 0.184838C222.163 0.290479 222.286 0.528169 222.286 0.897909V7.97579C222.973 7.44759 223.871 7.18349 224.98 7.18349ZM224.558 19.0944C225.896 19.0944 226.565 17.9852 226.565 15.7667C226.565 14.7103 226.477 13.6539 226.301 12.5975C226.142 11.5411 225.843 10.5904 225.403 9.74526C224.98 8.90014 224.47 8.47758 223.871 8.47758C223.396 8.47758 223.008 8.68886 222.709 9.11142C222.427 9.51637 222.286 10.0798 222.286 10.8017V15.9252C222.286 16.7351 222.515 17.4658 222.973 18.1172C223.448 18.7687 223.977 19.0944 224.558 19.0944ZM243.247 15.9516C243.441 15.7579 243.652 15.7051 243.881 15.7931C244.127 15.8636 244.242 16.0396 244.224 16.3213C244.189 17.2017 243.678 18.0996 242.692 19.0152C241.706 19.9307 240.43 20.3885 238.863 20.3885C236.944 20.3885 235.377 19.7723 234.162 18.5398C232.947 17.3073 232.34 15.6963 232.34 13.7068C232.34 11.8052 232.973 10.247 234.241 9.03219C235.526 7.79972 237.058 7.18349 238.836 7.18349C240.439 7.18349 241.68 7.55323 242.56 8.29271C243.441 9.03219 243.881 9.86851 243.881 10.8017C243.881 11.5411 243.537 12.0869 242.851 12.4391L237.595 15.397C238.317 16.5414 239.321 17.1136 240.606 17.1136C241.152 17.1136 241.662 17.008 242.138 16.7967C242.631 16.5678 243 16.2861 243.247 15.9516ZM238.361 8.47758C237.833 8.47758 237.401 8.74168 237.067 9.26988C236.75 9.79808 236.592 10.4583 236.592 11.2506C236.592 12.307 236.724 13.2314 236.988 14.0237L239.444 12.5447C239.902 12.2278 240.131 11.7788 240.131 11.1978C240.131 10.6168 239.981 10.0182 239.682 9.40193C239.4 8.7857 238.96 8.47758 238.361 8.47758ZM252.048 20.3885C250.041 20.3885 248.395 19.737 247.11 18.4341C245.824 17.1136 245.182 15.5555 245.182 13.7596C245.182 11.77 245.833 10.1854 247.136 9.00578C248.439 7.80853 250.023 7.2011 251.89 7.18349C253.457 7.16588 254.786 7.52682 255.878 8.2663C256.969 8.98817 257.515 9.93013 257.515 11.0922C257.515 11.5323 257.357 11.9021 257.04 12.2014C256.74 12.5007 256.256 12.6416 255.587 12.6239C254.989 12.5887 254.469 12.351 254.029 11.9109C253.606 11.4707 253.298 10.9953 253.105 10.4847C252.911 9.97415 252.647 9.51637 252.312 9.11142C251.978 8.68886 251.599 8.47758 251.177 8.47758C250.631 8.49519 250.182 8.7857 249.83 9.34911C249.495 9.91252 249.328 10.608 249.328 11.4355C249.328 13.161 249.715 14.5431 250.49 15.5819C251.282 16.6207 252.33 17.1401 253.633 17.1401C254.812 17.1401 255.79 16.6295 256.564 15.6083C256.74 15.397 256.952 15.3266 257.198 15.397C257.445 15.4498 257.568 15.6171 257.568 15.8988C257.533 17.1313 257.031 18.1877 256.063 19.068C255.094 19.9483 253.756 20.3885 252.048 20.3885ZM265.961 20.3885C263.919 20.3885 262.185 19.7635 260.759 18.5134C259.35 17.2457 258.646 15.6611 258.646 13.7596C258.646 11.8581 259.35 10.2911 260.759 9.0586C262.167 7.80853 263.84 7.18349 265.776 7.18349C267.784 7.18349 269.492 7.80853 270.9 9.0586C272.309 10.3087 273.013 11.8933 273.013 13.8124C273.013 15.7139 272.326 17.2897 270.953 18.5398C269.58 19.7723 267.916 20.3885 265.961 20.3885ZM266.516 19.0944C267.643 19.0944 268.206 18.0116 268.206 15.846C268.206 15.0537 268.092 14.1117 267.863 13.0201C267.652 11.9285 267.282 10.8985 266.754 9.93013C266.243 8.96176 265.671 8.47758 265.037 8.47758C264.421 8.47758 263.981 8.75048 263.717 9.29629C263.452 9.8421 263.32 10.6696 263.32 11.7788C263.32 12.3598 263.391 13.0465 263.532 13.8388C263.673 14.6311 263.866 15.4322 264.113 16.2421C264.359 17.0344 264.694 17.7123 265.116 18.2757C265.556 18.8215 266.023 19.0944 266.516 19.0944ZM296.621 17.2457C296.656 17.6859 296.824 18.126 297.123 18.5662C297.422 19.0064 297.572 19.3321 297.572 19.5434V19.649C297.572 19.9835 297.361 20.1508 296.938 20.1508H291.656C291.233 20.1508 291.022 19.9835 291.022 19.649V19.5434C291.022 19.3497 291.189 19.0328 291.524 18.5926C291.858 18.1524 292.008 17.7035 291.973 17.2457L291.709 12.5711C291.638 11.2506 291.462 10.3175 291.181 9.77167C290.899 9.20826 290.468 8.92655 289.887 8.92655C289.358 8.92655 288.953 9.15544 288.672 9.61321C288.39 10.071 288.249 10.6784 288.249 11.4355C288.302 11.8052 288.328 12.175 288.328 12.5447V17.2457C288.328 17.6859 288.487 18.126 288.804 18.5662C289.121 19.0064 289.279 19.3321 289.279 19.5434V19.649C289.279 19.9835 289.068 20.1508 288.645 20.1508H283.39C282.967 20.1508 282.756 19.9835 282.756 19.649V19.5434C282.756 19.3321 282.905 19.0064 283.205 18.5662C283.522 18.126 283.68 17.6859 283.68 17.2457V12.2278C283.68 10.027 283.082 8.92655 281.884 8.92655C281.303 8.92655 280.863 9.15544 280.564 9.61321C280.264 10.071 280.115 10.6784 280.115 11.4355V17.2457C280.115 17.6859 280.308 18.126 280.696 18.5662C281.083 19.0064 281.277 19.3321 281.277 19.5434V19.649C281.277 19.9835 281.066 20.1508 280.643 20.1508H274.938C274.516 20.1508 274.305 19.9835 274.305 19.649V19.5434C274.305 19.3321 274.498 19.0064 274.886 18.5662C275.273 18.126 275.467 17.6859 275.467 17.2457V12.0429C275.467 11.6908 275.343 11.3915 275.097 11.145C274.868 10.8809 274.639 10.652 274.41 10.4583C274.181 10.2647 274.067 10.0622 274.067 9.8509V9.77167C274.067 9.54278 274.278 9.3227 274.701 9.11142L278.662 7.28913C278.979 7.14828 279.226 7.14828 279.402 7.28913C279.578 7.42998 279.666 7.64126 279.666 7.92297V8.87373C280.476 7.7469 281.647 7.18349 283.178 7.18349C285.133 7.18349 286.576 7.90536 287.51 9.34911C287.862 8.66245 288.381 8.13425 289.068 7.76451C289.754 7.37716 290.538 7.18349 291.418 7.18349C292.704 7.18349 293.795 7.61485 294.693 8.47758C295.609 9.34031 296.137 10.7576 296.278 12.7296L296.621 17.2457ZM309.375 15.9516C309.569 15.7579 309.78 15.7051 310.009 15.7931C310.255 15.8636 310.37 16.0396 310.352 16.3213C310.317 17.2017 309.806 18.0996 308.82 19.0152C307.834 19.9307 306.558 20.3885 304.991 20.3885C303.072 20.3885 301.505 19.7723 300.29 18.5398C299.075 17.3073 298.468 15.6963 298.468 13.7068C298.468 11.8052 299.102 10.247 300.369 9.03219C301.655 7.79972 303.186 7.18349 304.965 7.18349C306.567 7.18349 307.808 7.55323 308.688 8.29271C309.569 9.03219 310.009 9.86851 310.009 10.8017C310.009 11.5411 309.666 12.0869 308.979 12.4391L303.723 15.397C304.445 16.5414 305.449 17.1136 306.734 17.1136C307.28 17.1136 307.79 17.008 308.266 16.7967C308.759 16.5678 309.129 16.2861 309.375 15.9516ZM304.489 8.47758C303.961 8.47758 303.53 8.74168 303.195 9.26988C302.878 9.79808 302.72 10.4583 302.72 11.2506C302.72 12.307 302.852 13.2314 303.116 14.0237L305.572 12.5447C306.03 12.2278 306.259 11.7788 306.259 11.1978C306.259 10.6168 306.109 10.0182 305.81 9.40193C305.528 8.7857 305.088 8.47758 304.489 8.47758ZM317.226 20.3621C315.535 20.3621 314.144 20.0804 313.053 19.517C311.961 18.9359 311.415 18.1877 311.415 17.2721C311.415 16.7087 311.583 16.2861 311.917 16.0044C312.269 15.7227 312.727 15.5819 313.291 15.5819C313.889 15.5819 314.365 15.7755 314.717 16.1629C315.069 16.5326 315.306 16.9464 315.43 17.4042C315.553 17.8443 315.764 18.2581 316.064 18.6454C316.363 19.0152 316.75 19.2 317.226 19.2C318.176 19.2 318.652 18.7159 318.652 17.7475C318.652 17.1136 318.405 16.6119 317.912 16.2421C317.437 15.8724 316.856 15.5907 316.169 15.397C315.483 15.2033 314.796 14.9832 314.109 14.7367C313.44 14.4903 312.859 14.0765 312.366 13.4955C311.891 12.9145 311.653 12.1486 311.653 11.1978C311.653 10.0182 312.173 9.0586 313.211 8.31912C314.25 7.56203 315.588 7.18349 317.226 7.18349C318.863 7.18349 320.192 7.49161 321.214 8.10784C322.252 8.72407 322.772 9.47236 322.772 10.3527C322.772 10.8105 322.596 11.1978 322.244 11.5147C321.909 11.814 321.495 11.9637 321.002 11.9637C320.421 11.9637 319.963 11.7788 319.629 11.4091C319.294 11.0393 319.066 10.6344 318.942 10.1942C318.837 9.73646 318.661 9.3227 318.414 8.95296C318.185 8.58322 317.868 8.39835 317.463 8.39835C317.076 8.39835 316.768 8.54801 316.539 8.84732C316.328 9.14663 316.222 9.49877 316.222 9.90372C316.222 10.5552 316.451 11.0834 316.909 11.4883C317.384 11.8933 317.947 12.2014 318.599 12.4127C319.268 12.6239 319.928 12.8528 320.58 13.0993C321.249 13.3458 321.812 13.7508 322.27 14.3142C322.745 14.86 322.983 15.5819 322.983 16.4798C322.983 17.6066 322.464 18.5398 321.425 19.2793C320.404 20.0011 319.004 20.3621 317.226 20.3621ZM337.79 7.18349C339.428 7.18349 340.871 7.7469 342.121 8.87373C343.389 9.98295 344.023 11.5411 344.023 13.5483C344.023 15.5731 343.407 17.2193 342.174 18.487C340.959 19.7546 339.498 20.3885 337.79 20.3885C336.487 20.3885 335.422 20.0011 334.595 19.2264V19.4641C334.595 19.9219 334.366 20.1508 333.908 20.1508L329.92 20.1244C329.515 20.1244 329.313 19.9571 329.313 19.6226V19.517C329.313 19.3057 329.489 18.9888 329.841 18.5662C330.193 18.126 330.369 17.6771 330.369 17.2193V5.20274C330.369 4.74497 330.149 4.32241 329.709 3.93506C329.286 3.53011 329.075 3.22199 329.075 3.01071V2.90507C329.075 2.62336 329.313 2.37687 329.788 2.16559L333.855 0.290479C334.19 0.114412 334.48 0.0791986 334.727 0.184838C334.973 0.290479 335.096 0.528169 335.096 0.897909V7.97579C335.783 7.44759 336.681 7.18349 337.79 7.18349ZM337.368 19.0944C338.706 19.0944 339.375 17.9852 339.375 15.7667C339.375 14.7103 339.287 13.6539 339.111 12.5975C338.952 11.5411 338.653 10.5904 338.213 9.74526C337.79 8.90014 337.28 8.47758 336.681 8.47758C336.206 8.47758 335.818 8.68886 335.519 9.11142C335.237 9.51637 335.096 10.0798 335.096 10.8017V15.9252C335.096 16.7351 335.325 17.4658 335.783 18.1172C336.258 18.7687 336.787 19.0944 337.368 19.0944ZM345.73 20.1244C345.325 20.1244 345.123 19.9571 345.123 19.6226V19.517C345.123 19.3057 345.29 18.9888 345.625 18.5662C345.977 18.126 346.153 17.6859 346.153 17.2457V5.17633C346.153 4.71856 345.977 4.27839 345.625 3.85583C345.29 3.41566 345.123 3.10755 345.123 2.93148V2.82584C345.123 2.63217 345.317 2.42969 345.704 2.21841L349.692 0.264069C350.062 0.105609 350.352 0.0968056 350.563 0.237659C350.792 0.360905 350.907 0.554579 350.907 0.81868V17.2457C350.907 17.6859 351.1 18.126 351.488 18.5662C351.875 18.9888 352.069 19.3057 352.069 19.517V19.6226C352.069 19.9571 351.858 20.1244 351.435 20.1244H345.73ZM366.719 17.2193C366.719 17.6947 366.772 18.0556 366.878 18.3021C367.001 18.5486 367.133 18.6894 367.274 18.7247C367.432 18.7423 367.564 18.8039 367.67 18.9095C367.793 19.0152 367.855 19.1824 367.855 19.4113C367.855 19.7458 367.626 19.9747 367.168 20.098C366.728 20.2212 366.05 20.2828 365.135 20.2828C364.307 20.2828 363.7 20.1684 363.312 19.9395C362.943 19.7106 362.723 19.3145 362.652 18.7511C361.948 19.8427 360.707 20.3885 358.928 20.3885C357.52 20.3885 356.34 19.9307 355.389 19.0152C354.456 18.082 353.99 16.8055 353.99 15.1857V10.7752C353.99 10.3175 353.814 9.87731 353.462 9.45475C353.109 9.03219 352.933 8.73288 352.933 8.55681V8.45117C352.933 8.09904 353.136 7.89656 353.541 7.84374L357.476 7.31554C358.303 7.2099 358.717 7.38597 358.717 7.84374L358.638 15.6611C358.62 16.7175 358.744 17.4834 359.008 17.9588C359.289 18.4165 359.73 18.6454 360.328 18.6454C360.821 18.6454 361.235 18.4077 361.569 17.9324C361.904 17.4394 362.071 16.7967 362.071 16.0044V10.7752C362.071 10.3175 361.895 9.87731 361.543 9.45475C361.191 9.03219 361.015 8.73288 361.015 8.55681V8.45117C361.015 8.09904 361.217 7.89656 361.622 7.84374L365.557 7.31554C366.332 7.2099 366.719 7.38597 366.719 7.84374V17.2193ZM379.784 15.9516C379.978 15.7579 380.189 15.7051 380.418 15.7931C380.665 15.8636 380.779 16.0396 380.762 16.3213C380.726 17.2017 380.216 18.0996 379.23 19.0152C378.244 19.9307 376.967 20.3885 375.4 20.3885C373.481 20.3885 371.914 19.7723 370.699 18.5398C369.485 17.3073 368.877 15.6963 368.877 13.7068C368.877 11.8052 369.511 10.247 370.779 9.03219C372.064 7.79972 373.596 7.18349 375.374 7.18349C376.976 7.18349 378.217 7.55323 379.098 8.29271C379.978 9.03219 380.418 9.86851 380.418 10.8017C380.418 11.5411 380.075 12.0869 379.388 12.4391L374.133 15.397C374.855 16.5414 375.858 17.1136 377.143 17.1136C377.689 17.1136 378.2 17.008 378.675 16.7967C379.168 16.5678 379.538 16.2861 379.784 15.9516ZM374.899 8.47758C374.37 8.47758 373.939 8.74168 373.605 9.26988C373.288 9.79808 373.129 10.4583 373.129 11.2506C373.129 12.307 373.261 13.2314 373.525 14.0237L375.981 12.5447C376.439 12.2278 376.668 11.7788 376.668 11.1978C376.668 10.6168 376.518 10.0182 376.219 9.40193C375.937 8.7857 375.497 8.47758 374.899 8.47758Z" fill="#050624"/>
</svg>
